<?xml version="1.0" encoding="UTF-8"?><svg id="Layer_1" xmlns="http://www.w3.org/2000/svg" width="7in" height="5in" viewBox="0 0 504 360"><defs><style>.cls-1{fill:#819376;}</style></defs><path class="cls-1" d="m293.85,196.7c-2.22,23.34-16.78,42.56-41.85,42.56s-39.62-19.21-41.87-42.56h-33.17c2.72,39.05,30.64,70.78,75.04,70.78s72.33-31.74,75.04-70.78h-33.19Z"/><path class="cls-1" d="m262.66,114.25c1.77-2.28,2.83-5.14,2.83-8.25,0-7.45-6.04-13.49-13.49-13.49s-13.49,6.04-13.49,13.49c0,3.11,1.06,5.96,2.83,8.25-38.6,4.64-62.43,34.44-64.45,71h150.22c-2.02-36.56-25.87-66.36-64.45-71Zm-10.66-17.24c3.04,0,5.5,2.46,5.5,5.5s-2.46,5.5-5.5,5.5-5.5-2.46-5.5-5.5,2.46-5.5,5.5-5.5Zm-5.11,25.89h10.22c32.39,0,58.66,25.85,58.68,57.74h-127.58c.03-31.89,26.29-57.74,58.68-57.74Z"/><path class="cls-1" d="m205.34,171.84h8.72c-2.25-29.02,29.76-39.47,29.76-39.47-41.11,3.48-38.48,39.47-38.48,39.47Z"/></svg>