<?xml version="1.0" encoding="UTF-8"?><svg id="Layer_1" xmlns="http://www.w3.org/2000/svg" width="1.05in" height=".22in" viewBox="0 0 75.37 15.9"><defs><style>.cls-1{fill:#fff;}</style></defs><path class="cls-1" d="m2.25,2.25C3.73.75,5.6,0,7.87,0c1.99,0,3.78.7,5.36,2.1l-2.2,2.69c-.91-.77-1.86-1.16-2.86-1.16-1.27,0-2.27.39-3.02,1.17-.75.78-1.12,1.79-1.12,3.02s.38,2.29,1.14,3.11c.76.82,1.76,1.23,3.01,1.23,1.18,0,2.2-.48,3.06-1.43l2.42,2.59c-.76.79-1.63,1.4-2.63,1.83-1,.43-2,.64-3.02.64-2.32,0-4.23-.75-5.74-2.25-1.51-1.5-2.26-3.38-2.26-5.65S.75,3.76,2.25,2.25Z"/><path class="cls-1" d="m35.76,3.78v.25l-4.66,8.54h4.57v2.99h-9.92v-.22l4.66-8.54h-4.15v-3.01h9.5Z"/><path class="cls-1" d="m39.09.25h4.17l3.09,5.8L49.53.25h3.58l-5.03,8.96v6.34h-3.92v-6.24L39.09.25Z"/><path class="cls-1" d="m64.84,5.28c1.15-1.17,2.62-1.75,4.39-1.75s3.25.58,4.41,1.75c1.16,1.17,1.74,2.63,1.74,4.39s-.58,3.2-1.74,4.37c-1.16,1.17-2.63,1.75-4.41,1.75s-3.22-.58-4.38-1.75c-1.16-1.17-1.74-2.62-1.74-4.37s.58-3.22,1.73-4.39Zm2.67,6.42c.46.51,1.04.77,1.75.77s1.25-.25,1.73-.77c.48-.51.72-1.18.72-2.02s-.24-1.54-.72-2.05c-.48-.51-1.05-.77-1.73-.77-.71,0-1.3.26-1.76.77-.47.51-.7,1.19-.7,2.05s.24,1.51.72,2.02Z"/><path class="cls-1" d="m60.83,5.28c-1.16-1.17-2.63-1.75-4.41-1.75s-3.24.58-4.39,1.75c-1.15,1.17-1.73,2.63-1.73,4.39s.58,3.2,1.74,4.37c1.16,1.17,2.62,1.75,4.38,1.75s3.25-.58,4.41-1.75c1.16-1.17,1.74-2.62,1.74-4.37s-.58-3.22-1.74-4.39Zm-2.17,1.75c.49,0,.89.4.89.89s-.4.89-.89.89-.89-.4-.89-.89.4-.89.89-.89Zm-4.44,0c.49,0,.89.4.89.89s-.4.89-.89.89-.89-.4-.89-.89.4-.89.89-.89Zm6.56,4.63c-.38.63-.91,1.18-1.52,1.58-.82.54-1.77.82-2.74.82-.02,0-.05,0-.07,0-.02,0-.05,0-.07,0-.97,0-1.93-.28-2.74-.82-.61-.41-1.14-.95-1.52-1.58-.12-.19-.06-.45.14-.56.19-.12.45-.06.56.14.32.53.76.98,1.27,1.32.7.46,1.52.7,2.35.68h0s0,0,.01,0c0,0,0,0,.01,0h0c.83.01,1.65-.22,2.35-.68.51-.34.95-.8,1.27-1.32.12-.19.37-.26.56-.14.19.12.26.37.14.56Z"/><g><path class="cls-1" d="m23.41,10.16c-.18,1.89-1.36,3.45-3.4,3.45s-3.21-1.56-3.4-3.45h-2.69c.22,3.17,2.49,5.74,6.09,5.74s5.87-2.58,6.09-5.74h-2.69Z"/><path class="cls-1" d="m20.88,3.47c.14-.19.23-.42.23-.67,0-.6-.49-1.09-1.09-1.09s-1.09.49-1.09,1.09c0,.25.09.48.23.67-3.13.38-5.07,2.79-5.23,5.76h12.19c-.16-2.97-2.1-5.38-5.23-5.76Zm-.87-1.4c.25,0,.45.2.45.45s-.2.45-.45.45-.45-.2-.45-.45.2-.45.45-.45Zm-.41,2.1h.83c2.63,0,4.76,2.1,4.76,4.68h-10.35c0-2.59,2.13-4.68,4.76-4.68Z"/><path class="cls-1" d="m16.23,8.14h.71c-.18-2.36,2.41-3.2,2.41-3.2-3.34.28-3.12,3.2-3.12,3.2Z"/></g><g><rect class="cls-1" x="36.63" y="3.78" width="3.75" height="2.14"/><rect class="cls-1" x="36.63" y="7.05" width="3.75" height="8.5"/></g></svg>