<?xml version="1.0" encoding="UTF-8"?><svg id="Layer_1" xmlns="http://www.w3.org/2000/svg" width="7in" height="5in" xmlns:xlink="http://www.w3.org/1999/xlink" viewBox="0 0 504 360"><defs><style>.cls-1{fill:url(#radial-gradient);}.cls-2{fill:#b15735;}.cls-3{fill:#819376;}</style><radialGradient id="radial-gradient" cx="252" cy="180" fx="252" fy="180" r="218.98" gradientUnits="userSpaceOnUse"><stop offset="0" stop-color="#fff"/><stop offset="1" stop-color="#fff8eb"/></radialGradient></defs><rect class="cls-1" width="504" height="360"/><g><path class="cls-3" d="m94.95,154.72c6.56-6.63,14.87-9.95,24.93-9.95,8.82,0,16.73,3.1,23.73,9.3l-9.73,11.92c-4.01-3.43-8.24-5.14-12.69-5.14-5.62,0-10.08,1.73-13.4,5.19-3.32,3.46-4.98,7.93-4.98,13.4s1.68,10.13,5.03,13.78c3.35,3.65,7.8,5.47,13.34,5.47,5.25,0,9.77-2.11,13.56-6.34l10.72,11.48c-3.35,3.5-7.24,6.2-11.65,8.09-4.41,1.89-8.88,2.84-13.4,2.84-10.28,0-18.76-3.32-25.43-9.95-6.67-6.63-10.01-14.98-10.01-25.04s3.32-18.34,9.95-25.04Z"/><path class="cls-3" d="m243.47,161.5v1.09l-20.67,37.84h20.23v13.23h-43.96v-.98l20.67-37.84h-18.37v-13.34h42.11Z"/><path class="cls-2" d="m258.23,145.87h18.48l13.67,25.7,14.11-25.7h15.86l-22.31,39.7v28.11h-17.39v-27.67l-22.42-40.14Z"/><path class="cls-2" d="m372.3,168.18c5.1-5.18,11.59-7.76,19.47-7.76s14.38,2.59,19.52,7.76c5.14,5.18,7.71,11.67,7.71,19.47s-2.57,14.18-7.71,19.36c-5.14,5.18-11.65,7.76-19.52,7.76s-14.27-2.59-19.41-7.76c-5.14-5.17-7.71-11.63-7.71-19.36s2.55-14.29,7.66-19.47Zm11.81,28.43c2.04,2.26,4.63,3.39,7.76,3.39s5.54-1.13,7.66-3.39c2.11-2.26,3.17-5.25,3.17-8.97s-1.06-6.82-3.17-9.08c-2.12-2.26-4.67-3.39-7.66-3.39-3.14,0-5.74,1.13-7.82,3.39-2.08,2.26-3.12,5.29-3.12,9.08s1.06,6.71,3.17,8.97Z"/><path class="cls-2" d="m354.53,168.18c-5.14-5.18-11.65-7.76-19.52-7.76s-14.36,2.59-19.47,7.76c-5.1,5.18-7.66,11.67-7.66,19.47s2.57,14.18,7.71,19.36c5.14,5.18,11.61,7.76,19.41,7.76s14.38-2.59,19.52-7.76c5.14-5.17,7.71-11.63,7.71-19.36s-2.57-14.29-7.71-19.47Zm-9.63,7.76c2.17,0,3.93,1.76,3.93,3.93s-1.76,3.93-3.93,3.93-3.93-1.76-3.93-3.93,1.76-3.93,3.93-3.93Zm-19.67,0c2.17,0,3.93,1.76,3.93,3.93s-1.76,3.93-3.93,3.93-3.93-1.76-3.93-3.93,1.76-3.93,3.93-3.93Zm29.06,20.53c-1.69,2.79-4.02,5.21-6.74,7.01-3.61,2.39-7.86,3.63-12.15,3.63-.11,0-.22,0-.33,0-.11,0-.22,0-.33,0-4.29,0-8.54-1.25-12.15-3.63-2.72-1.8-5.05-4.22-6.74-7.01-.52-.86-.25-1.98.61-2.5.86-.52,1.98-.25,2.5.61,1.41,2.33,3.36,4.36,5.64,5.86,3.1,2.04,6.75,3.08,10.43,3.02h0s.03,0,.05,0c.02,0,.03,0,.05,0h0c3.68.06,7.33-.98,10.43-3.02,2.28-1.5,4.22-3.53,5.64-5.86.52-.86,1.64-1.13,2.5-.61.86.52,1.13,1.64.61,2.5Z"/><g><path class="cls-3" d="m188.73,189.78c-.8,8.39-6.03,15.3-15.05,15.3s-14.24-6.91-15.06-15.3h-11.93c.98,14.04,11.02,25.45,26.98,25.45s26-11.41,26.98-25.45h-11.93Z"/><path class="cls-3" d="m177.52,160.13c.64-.82,1.02-1.85,1.02-2.96,0-2.68-2.17-4.85-4.85-4.85s-4.85,2.17-4.85,4.85c0,1.12.38,2.14,1.02,2.96-13.88,1.67-22.45,12.38-23.17,25.53h54.01c-.72-13.14-9.3-23.86-23.17-25.53Zm-3.83-6.2c1.09,0,1.98.88,1.98,1.98s-.89,1.98-1.98,1.98-1.98-.88-1.98-1.98.89-1.98,1.98-1.98Zm-1.84,9.31h3.68c11.65,0,21.09,9.29,21.1,20.76h-45.87c0-11.47,9.45-20.76,21.1-20.76Z"/><path class="cls-3" d="m156.91,180.84h3.14c-.81-10.44,10.7-14.19,10.7-14.19-14.78,1.25-13.84,14.19-13.84,14.19Z"/></g><g><rect class="cls-3" x="247.29" y="161.5" width="16.62" height="9.5"/><rect class="cls-3" x="247.29" y="176" width="16.62" height="37.67"/></g></g></svg>