<?xml version="1.0" encoding="UTF-8"?><svg id="Layer_1" xmlns="http://www.w3.org/2000/svg" width=".47in" height=".47in" viewBox="0 0 33.98 33.98"><defs><style>.cls-1{fill:#b15735;}</style></defs><path class="cls-1" d="m29.16,4.85C25.95,1.62,21.88,0,16.96,0S7.98,1.62,4.79,4.85C1.6,8.09,0,12.15,0,17.03s1.61,8.87,4.82,12.1c3.21,3.24,7.26,4.85,12.14,4.85s8.99-1.62,12.21-4.85c3.21-3.24,4.82-7.27,4.82-12.1s-1.61-8.93-4.82-12.17Zm-6.02,4.85c1.36,0,2.46,1.1,2.46,2.46s-1.1,2.46-2.46,2.46-2.46-1.1-2.46-2.46,1.1-2.46,2.46-2.46Zm-12.3,0c1.36,0,2.46,1.1,2.46,2.46s-1.1,2.46-2.46,2.46-2.46-1.1-2.46-2.46,1.1-2.46,2.46-2.46Zm18.17,12.84c-1.06,1.74-2.51,3.26-4.22,4.38-2.26,1.49-4.92,2.27-7.6,2.27-.07,0-.14,0-.2,0-.07,0-.14,0-.2,0-2.68,0-5.34-.78-7.6-2.27-1.7-1.12-3.16-2.64-4.22-4.38-.33-.54-.15-1.24.38-1.56.54-.32,1.24-.15,1.56.38.88,1.46,2.1,2.72,3.52,3.66,1.94,1.28,4.22,1.93,6.52,1.89h0s.02,0,.03,0c.01,0,.02,0,.03,0h0c2.3.03,4.58-.61,6.52-1.89,1.42-.94,2.64-2.21,3.52-3.66.33-.54,1.02-.71,1.56-.38.54.33.71,1.02.38,1.56Z"/></svg>