<?xml version="1.0" encoding="UTF-8"?><svg id="Layer_1" xmlns="http://www.w3.org/2000/svg" width="7in" height="5in" viewBox="0 0 504 360"><defs><style>.cls-1{fill:#b15735;}</style></defs><path class="cls-1" d="m305.93,126.22c-14.24-14.34-32.27-21.51-54.08-21.51s-39.8,7.17-53.93,21.51c-14.14,14.34-21.21,32.32-21.21,53.93s7.12,39.29,21.36,53.63c14.24,14.34,32.16,21.51,53.78,21.51s39.84-7.17,54.08-21.51c14.24-14.34,21.36-32.21,21.36-53.63s-7.12-39.59-21.36-53.93Zm-26.69,21.5c6.02,0,10.9,4.88,10.9,10.9s-4.88,10.9-10.9,10.9-10.9-4.88-10.9-10.9,4.88-10.9,10.9-10.9Zm-54.48,0c6.02,0,10.9,4.88,10.9,10.9s-4.88,10.9-10.9,10.9-10.9-4.88-10.9-10.9,4.88-10.9,10.9-10.9Zm80.5,56.88c-4.68,7.73-11.14,14.44-18.68,19.42-10.01,6.61-21.79,10.06-33.67,10.06-.3,0-.6,0-.9-.01-.3,0-.6.01-.9.01-11.88,0-23.66-3.45-33.67-10.06-7.54-4.98-14-11.69-18.68-19.42-1.44-2.38-.68-5.47,1.7-6.92,2.38-1.44,5.47-.68,6.92,1.7,3.91,6.46,9.31,12.07,15.62,16.23,8.58,5.66,18.71,8.53,28.89,8.38h0s.09,0,.14,0c.05,0,.09,0,.14,0h0c10.19.16,20.32-2.72,28.89-8.38,6.3-4.16,11.7-9.77,15.62-16.23,1.44-2.38,4.54-3.14,6.92-1.7,2.38,1.44,3.14,4.54,1.7,6.92Z"/></svg>