<?xml version="1.0" encoding="UTF-8"?><svg id="Layer_1" xmlns="http://www.w3.org/2000/svg" width=".47in" height=".55in" viewBox="0 0 33.9 39.49"><defs><style>.cls-1{fill:#819376;}</style></defs><path class="cls-1" d="m26.4,23.51c-.5,5.27-3.79,9.6-9.45,9.6s-8.94-4.34-9.45-9.6H.02c.61,8.81,6.91,15.97,16.94,15.97s16.32-7.16,16.94-15.97h-7.49Z"/><path class="cls-1" d="m19.36,4.91c.4-.51.64-1.16.64-1.86,0-1.68-1.36-3.05-3.05-3.05s-3.05,1.36-3.05,3.05c0,.7.24,1.35.64,1.86C5.83,5.95.45,12.68,0,20.93h33.9c-.45-8.25-5.84-14.98-14.54-16.02Zm-2.41-3.89c.69,0,1.24.56,1.24,1.24s-.56,1.24-1.24,1.24-1.24-.56-1.24-1.24.56-1.24,1.24-1.24Zm-1.15,5.84h2.31c7.31,0,13.24,5.83,13.24,13.03H2.55c0-7.2,5.93-13.03,13.24-13.03Z"/><path class="cls-1" d="m6.42,17.9h1.97c-.51-6.55,6.72-8.91,6.72-8.91-9.28.79-8.68,8.91-8.68,8.91Z"/></svg>